<svg width="8" height="11" viewBox="0 0 8 11" fill="none" xmlns="http://www.w3.org/2000/svg">
<path d="M9.29619e-07 0.550331L4.96864e-07 10.4506C0.000305747 10.5508 0.0271611 10.6491 0.0776744 10.7348C0.128188 10.8205 0.200446 10.8904 0.286673 10.9369C0.3729 10.9835 0.469831 11.005 0.56703 10.999C0.664229 10.9931 0.758015 10.96 0.838295 10.9033L7.78401 5.95313C8.07199 5.74798 8.07199 5.25407 7.78401 5.04836L0.838296 0.098218C0.758183 0.0409201 0.664349 0.00731922 0.566988 0.00106611C0.469627 -0.005187 0.372464 0.0161468 0.286054 0.0627497C0.199644 0.109353 0.127293 0.179442 0.0768618 0.265403C0.0264305 0.351364 -0.000152718 0.449909 9.29619e-07 0.550331Z" fill="#A6B1E1"/>
</svg>
