<svg width="192" height="192" viewBox="0 0 192 192" fill="none" xmlns="http://www.w3.org/2000/svg">
<path d="M129.845 74.6901L131.934 68.7938C134.149 62.5387 133.789 55.6595 130.933 49.6698C128.077 43.68 122.958 39.0703 116.703 36.8547C110.447 34.639 103.568 34.999 97.5785 37.8554C91.5888 40.7118 86.979 45.8306 84.7634 52.0858L82.6749 57.9821L78.2527 56.4157C73.1704 54.6155 67.5811 54.908 62.7144 57.2288C57.8477 59.5496 54.1023 63.7087 52.3021 68.791L36.6383 113.013C34.8381 118.095 35.1306 123.685 37.4514 128.551C39.7722 133.418 43.9313 137.164 49.0136 138.964L71.1247 146.796L71.3043 146.289C72.4127 143.161 74.7178 140.603 77.7127 139.175L105.244 126.046C106.161 121.893 108.007 118.002 110.643 114.665C113.279 111.327 116.637 108.631 120.465 106.778C124.293 104.924 128.491 103.963 132.744 103.964C136.997 103.966 141.194 104.932 145.02 106.789L146.643 102.207C148.443 97.1248 148.15 91.5355 145.83 86.6688C143.509 81.8021 139.35 78.0567 134.267 76.2565L129.845 74.6901ZM91.5193 61.1148L93.6078 55.2185C94.9926 51.3091 97.8737 48.1098 101.617 46.3246C105.361 44.5393 109.66 44.3143 113.57 45.6991C117.479 47.0839 120.679 49.9649 122.464 53.7085C124.249 57.4521 124.474 61.7516 123.089 65.6611L121.001 71.5574L91.5193 61.1148ZM100.485 110.743C99.6541 113.089 97.9254 115.008 95.6793 116.079C93.4331 117.15 90.8534 117.285 88.5077 116.455C86.1621 115.624 84.2425 113.895 83.1713 111.649C82.1002 109.403 81.9652 106.823 82.7961 104.477C83.6269 102.132 85.3556 100.212 87.6017 99.141C89.8479 98.0698 92.4276 97.9348 94.7733 98.7657C97.119 99.5965 99.0385 101.325 100.11 103.571C101.181 105.818 101.316 108.397 100.485 110.743ZM125.42 152.755C129.727 154.279 134.404 154.417 138.793 153.151C143.183 151.884 147.066 149.275 149.899 145.69C152.732 142.106 154.373 137.725 154.591 133.161C154.809 128.597 153.594 124.08 151.116 120.241C148.638 116.403 145.021 113.436 140.772 111.756C136.523 110.076 131.855 109.768 127.422 110.874C122.989 111.98 119.013 114.445 116.051 117.924C113.09 121.403 111.291 125.722 110.907 130.275L80.4048 144.82C78.9073 145.534 77.7548 146.813 77.2006 148.377L73.8882 157.729C73.6112 158.51 73.6562 159.37 74.0133 160.119C74.3703 160.868 75.0102 161.444 75.7921 161.721L87.5847 165.898C88.3666 166.175 89.2264 166.13 89.9752 165.773C90.7239 165.416 91.3001 164.776 91.5771 163.994L92.6213 161.046L98.5176 163.134C99.2995 163.411 100.159 163.366 100.908 163.009C101.657 162.652 102.233 162.012 102.51 161.231L104.599 155.334L110.495 157.423C111.277 157.7 112.137 157.655 112.885 157.298C113.634 156.941 114.21 156.301 114.487 155.519L116.576 149.623L125.42 152.755ZM138.811 124.318C140.375 124.872 141.654 126.025 142.368 127.522C143.082 129.019 143.172 130.739 142.619 132.303C142.065 133.867 140.912 135.146 139.415 135.861C137.917 136.575 136.198 136.665 134.634 136.111C133.07 135.557 131.79 134.404 131.076 132.907C130.362 131.41 130.272 129.69 130.826 128.126C131.38 126.562 132.532 125.282 134.03 124.568C135.527 123.854 137.247 123.764 138.811 124.318Z" fill="#DCD6F7" fill-opacity="0.5"/>
</svg>
