<svg width="195" height="195" viewBox="0 0 195 195" fill="none" xmlns="http://www.w3.org/2000/svg">
<path d="M110.071 32.6305C114.083 34.5531 117.209 37.5843 119.259 41.1722L107.069 66.6074L98.1239 62.3206C98.4738 59.1093 97.676 55.8778 95.8716 53.1984C94.0673 50.519 91.3729 48.5647 88.2657 47.6815C85.1585 46.7983 81.839 47.0433 78.8951 48.3731C75.9513 49.7029 73.573 52.0317 72.1816 54.9469C70.7951 57.8568 70.4801 61.1626 71.292 64.282C72.1039 67.4014 73.9906 70.1342 76.6198 71.9989C79.2489 73.8637 82.4518 74.7407 85.6642 74.4755C88.8766 74.2103 91.8924 72.82 94.1802 70.5493L103.125 74.8362L67.6334 148.891C62.7927 149.867 57.7657 149.236 53.3164 147.094L52.0409 146.483C47.6572 144.381 44.0595 140.934 41.7723 136.645C39.4851 132.355 38.6281 127.447 39.3263 122.636L39.7037 120.064C34.6472 116.723 30.9707 111.665 29.3534 105.824C27.7362 99.9834 28.2873 93.7547 30.9051 88.2887L31.8911 86.2315C34.7964 80.1514 39.8523 75.3642 46.0818 72.7948L62.4076 80.6192C64.0444 81.4036 65.3026 82.8062 65.9053 84.5182C66.508 86.2303 66.4059 88.1117 65.6214 89.7485L64.2924 92.5216C61.0811 92.1717 57.8496 92.9695 55.1702 94.7738C52.4909 96.5782 50.5365 99.2726 49.6533 102.38C48.7702 105.487 49.0152 108.806 50.345 111.75C51.6747 114.694 54.0035 117.072 56.9187 118.464C59.8286 119.85 63.1345 120.165 66.2539 119.354C69.3732 118.542 72.106 116.655 73.9708 114.026C75.8355 111.397 76.7125 108.194 76.4474 104.981C76.1822 101.769 74.7918 98.7531 72.5212 96.4653L73.8502 93.6922C75.6806 89.873 75.9188 85.4831 74.5125 81.4882C73.1062 77.4934 70.1706 74.2208 66.3514 72.3904L51.9675 65.4968C50.9864 60.6555 51.6131 55.6263 53.7522 51.1739C56.2969 45.8662 60.7947 41.7475 66.3054 39.6788C71.816 37.6102 77.9131 37.7516 83.3219 40.0736C86.125 35.8062 90.3807 32.7001 95.2996 31.3314C100.218 29.9627 105.467 30.4243 110.071 32.6305ZM139.901 46.9265C144.505 49.1335 148.152 52.9354 150.167 57.6269C152.181 62.3185 152.426 67.5814 150.855 72.4397C154.948 74.6163 158.28 77.9878 160.408 82.1052C162.536 86.2227 163.36 90.8908 162.769 95.488C162.178 100.085 160.201 104.393 157.101 107.839C154.001 111.284 149.925 113.704 145.415 114.775C147.95 118.707 149.436 123.222 149.729 127.891C150.023 132.559 149.116 137.225 147.094 141.444L146.108 143.501C143.487 148.965 138.977 153.297 133.411 155.695C127.846 158.093 121.6 158.396 115.828 156.547L114.06 158.452C110.747 162.01 106.385 164.417 101.608 165.321C96.8316 166.226 91.891 165.581 87.5069 163.48L86.2315 162.869C81.7747 160.742 78.1338 157.219 75.8621 152.835L89.6632 124.038L99.9491 128.968C103.768 130.798 108.158 131.036 112.153 129.63C116.148 128.224 119.421 125.288 121.251 121.469L122.582 118.692C125.791 119.038 129.02 118.238 131.696 116.434C134.373 114.63 136.325 111.937 137.207 108.832C138.09 105.727 137.846 102.41 136.518 99.4672C135.191 96.5248 132.866 94.1467 129.954 92.7536C127.044 91.3565 123.733 91.0337 120.608 91.8422C117.483 92.6506 114.745 94.5382 112.877 97.1712C111.01 99.8041 110.133 103.013 110.404 106.229C110.674 109.446 112.073 112.463 114.353 114.748L113.022 117.525C112.238 119.162 110.835 120.42 109.123 121.023C107.411 121.626 105.53 121.523 103.893 120.739L93.6069 115.809L127.487 45.116C131.713 44.4398 136.044 45.0716 139.901 46.9265ZM64.8062 102.006C65.8974 102.529 66.7361 103.464 67.1379 104.606C67.5397 105.747 67.4717 107.001 66.9487 108.093C66.4257 109.184 65.4907 110.023 64.3493 110.424C63.2079 110.826 61.9537 110.758 60.8625 110.235C59.7713 109.712 58.9325 108.777 58.5307 107.636C58.1289 106.494 58.197 105.24 58.7199 104.149C59.2429 103.058 60.1779 102.219 61.3193 101.817C62.4607 101.415 63.715 101.483 64.8062 102.006ZM126.01 100.982C127.101 101.505 127.94 102.44 128.342 103.582C128.744 104.723 128.675 105.977 128.152 107.069C127.63 108.16 126.695 108.999 125.553 109.4C124.412 109.802 123.157 109.734 122.066 109.211C120.975 108.688 120.136 107.753 119.734 106.612C119.333 105.47 119.401 104.216 119.924 103.125C120.447 102.034 121.382 101.195 122.523 100.793C123.665 100.391 124.919 100.459 126.01 100.982ZM86.4966 56.7481C87.5878 57.2711 88.4266 58.2061 88.8284 59.3475C89.2302 60.4889 89.1621 61.7431 88.6391 62.8343C88.1162 63.9255 87.1811 64.7643 86.0398 65.1661C84.8984 65.5679 83.6441 65.4998 82.5529 64.9769C81.4617 64.4539 80.6229 63.5189 80.2211 62.3775C79.8193 61.2361 79.8874 59.9818 80.4104 58.8906C80.9333 57.7994 81.8684 56.9607 83.0098 56.5589C84.1512 56.1571 85.4054 56.2251 86.4966 56.7481Z" fill="#DCD6F7" fill-opacity="0.5"/>
</svg>



