<svg width="28" height="28" viewBox="0 0 28 28" fill="none" xmlns="http://www.w3.org/2000/svg">
<path d="M13.0865 22.6147C13.4199 23.5126 14.0583 24.2648 14.8901 24.7397C15.7218 25.2147 16.694 25.3822 17.6368 25.2131C18.5796 25.0439 19.4329 24.5488 20.0477 23.8143C20.6624 23.0799 20.9995 22.1527 21 21.1949V15.1667L14 11.2584" stroke="#424874" stroke-width="2" stroke-linecap="round" stroke-linejoin="round"/>
<path d="M6.08299 17.5164C5.47161 18.2541 5.13903 19.1832 5.14341 20.1413C5.14779 21.0995 5.48885 22.0255 6.10694 22.7576C6.72504 23.4897 7.58082 23.9812 8.52463 24.1462C9.46845 24.3111 10.4402 24.1391 11.27 23.66L16.3333 20.7037V12.6" stroke="#424874" stroke-width="2" stroke-linecap="round" stroke-linejoin="round"/>
<path d="M6.99999 8.90167C5.37716 8.62634 3.74849 9.36251 2.87699 10.8722C2.33969 11.8029 2.19406 12.909 2.47213 13.9471C2.75021 14.9853 3.42921 15.8704 4.35983 16.408L9.33333 19.341L16.3333 15.435" stroke="#424874" stroke-width="2" stroke-linecap="round" stroke-linejoin="round"/>
<path d="M14.9135 5.38535C14.5801 4.48746 13.9417 3.7353 13.1099 3.26034C12.2782 2.78538 11.3059 2.61783 10.3632 2.78698C9.42042 2.95613 8.56709 3.45122 7.95233 4.18571C7.33758 4.9202 7.00049 5.84737 7 6.80519V12.7167L14 16.7417" stroke="#424874" stroke-width="2" stroke-linecap="round" stroke-linejoin="round"/>
<path d="M21.917 10.4837C22.5284 9.74595 22.861 8.8168 22.8566 7.85869C22.8522 6.90057 22.5112 5.9745 21.8931 5.24241C21.275 4.51032 20.4192 4.01881 19.4754 3.85385C18.5316 3.68889 17.5598 3.86097 16.73 4.34L11.6667 7.29633V15.4" stroke="#424874" stroke-width="2" stroke-linecap="round" stroke-linejoin="round"/>
<path d="M21 19.019C22.6229 19.2944 24.2515 18.5582 25.123 17.0485C25.6603 16.1178 25.806 15.0117 25.5279 13.9736C25.2498 12.9355 24.5708 12.0503 23.6402 11.5127L18.6142 8.57971L11.6667 12.5697" stroke="#424874" stroke-width="2" stroke-linecap="round" stroke-linejoin="round"/>
</svg>



